<svg xmlns="http://www.w3.org/2000/svg" xmlns:xlink="http://www.w3.org/1999/xlink" width="500" zoomAndPan="magnify" viewBox="0 0 375 374.999991" height="500" preserveAspectRatio="xMidYMid meet" version="1.0"><defs><clipPath id="1673b8be2c"><path d="M 4.691406 4.691406 L 370.308594 4.691406 L 370.308594 370.308594 L 4.691406 370.308594 Z M 4.691406 4.691406 " clip-rule="nonzero"/></clipPath><clipPath id="6a63bdcfea"><path d="M 187.5 4.691406 C 86.539062 4.691406 4.691406 86.539062 4.691406 187.5 C 4.691406 288.460938 86.539062 370.308594 187.5 370.308594 C 288.460938 370.308594 370.308594 288.460938 370.308594 187.5 C 370.308594 86.539062 288.460938 4.691406 187.5 4.691406 Z M 187.5 4.691406 " clip-rule="nonzero"/></clipPath><clipPath id="d21ea2e782"><path d="M 179 52.0625 L 196 52.0625 L 196 86 L 179 86 Z M 179 52.0625 " clip-rule="nonzero"/></clipPath><clipPath id="f107573eb4"><path d="M 71.871094 160 L 107 160 L 107 176 L 71.871094 176 Z M 71.871094 160 " clip-rule="nonzero"/></clipPath><clipPath id="e05b6c0b94"><path d="M 170 314 L 205 314 L 205 322.8125 L 170 322.8125 Z M 170 314 " clip-rule="nonzero"/></clipPath><clipPath id="deff4d136b"><path d="M 268 160 L 302.871094 160 L 302.871094 175.863281 L 268 175.863281 Z M 268 160 " clip-rule="nonzero"/></clipPath></defs><g clip-path="url(#1673b8be2c)"><g clip-path="url(#6a63bdcfea)"><path fill="#001f3f" d="M 4.691406 4.691406 L 370.308594 4.691406 L 370.308594 370.308594 L 4.691406 370.308594 Z M 4.691406 4.691406 " fill-opacity="1" fill-rule="nonzero"/></g></g><path fill="#f7e7ce" d="M 249.808594 116.324219 L 269.25 96.878906 C 272.253906 93.875 272.253906 88.988281 269.25 85.980469 C 266.238281 82.96875 261.359375 82.96875 258.347656 85.980469 L 239.175781 105.15625 C 243.046875 108.515625 246.582031 112.273438 249.808594 116.324219 " fill-opacity="1" fill-rule="nonzero"/><g clip-path="url(#d21ea2e782)"><path fill="#f7e7ce" d="M 187.492188 85.515625 C 187.5625 85.515625 187.625 85.515625 187.707031 85.515625 C 190.246094 85.515625 192.734375 85.675781 195.203125 85.9375 L 195.203125 59.816406 C 195.203125 55.566406 191.75 52.125 187.492188 52.125 C 183.230469 52.125 179.796875 55.566406 179.796875 59.816406 L 179.796875 85.9375 C 182.253906 85.675781 184.746094 85.515625 187.273438 85.515625 C 187.347656 85.515625 187.417969 85.515625 187.492188 85.515625 " fill-opacity="1" fill-rule="nonzero"/></g><path fill="#f7e7ce" d="M 125.179688 116.335938 C 128.398438 112.28125 131.921875 108.515625 135.785156 105.15625 L 116.625 85.980469 C 113.621094 82.96875 108.734375 82.96875 105.730469 85.980469 C 102.710938 88.988281 102.710938 93.875 105.730469 96.878906 L 125.179688 116.335938 " fill-opacity="1" fill-rule="nonzero"/><g clip-path="url(#f107573eb4)"><path fill="#f7e7ce" d="M 106.230469 171 C 106.230469 167.277344 106.535156 163.625 106.976562 160.039062 L 79.574219 160.039062 C 75.316406 160.039062 71.871094 163.492188 71.871094 167.742188 C 71.871094 172.003906 75.316406 175.453125 79.574219 175.453125 L 106.332031 175.453125 C 106.285156 173.992188 106.230469 172.511719 106.230469 171 " fill-opacity="1" fill-rule="nonzero"/></g><path fill="#f7e7ce" d="M 105.730469 238.597656 C 102.710938 241.601562 102.710938 246.488281 105.730469 249.503906 C 108.734375 252.515625 113.621094 252.515625 116.625 249.503906 L 130.75 235.378906 C 127.566406 231.792969 124.238281 227.824219 121.117188 223.21875 L 105.730469 238.597656 " fill-opacity="1" fill-rule="nonzero"/><g clip-path="url(#e05b6c0b94)"><path fill="#f7e7ce" d="M 190.933594 314.847656 L 170.714844 314.847656 C 170.703125 315.078125 170.667969 315.285156 170.667969 315.515625 C 170.667969 319.582031 176.910156 322.871094 182.691406 322.871094 L 192.289062 322.871094 C 198.070312 322.871094 204.304688 319.582031 204.304688 315.515625 C 204.304688 315.285156 204.277344 315.078125 204.277344 314.847656 L 190.933594 314.847656 " fill-opacity="1" fill-rule="nonzero"/></g><path fill="#f7e7ce" d="M 207.128906 296.121094 L 167.863281 296.121094 C 163.800781 296.121094 160.511719 299.421875 160.511719 303.472656 C 160.511719 307.539062 163.800781 310.847656 167.863281 310.847656 L 207.128906 310.847656 C 211.179688 310.847656 214.472656 307.539062 214.472656 303.472656 C 214.472656 299.421875 211.179688 296.121094 207.128906 296.121094 " fill-opacity="1" fill-rule="nonzero"/><path fill="#f7e7ce" d="M 207.128906 277.554688 L 167.863281 277.554688 C 163.800781 277.554688 160.511719 280.84375 160.511719 284.914062 C 160.511719 288.96875 163.800781 292.265625 167.863281 292.265625 L 207.128906 292.265625 C 211.179688 292.265625 214.472656 288.96875 214.472656 284.914062 C 214.472656 280.84375 211.179688 277.554688 207.128906 277.554688 " fill-opacity="1" fill-rule="nonzero"/><path fill="#f7e7ce" d="M 183.535156 130.792969 C 174.621094 131.140625 168.550781 133.5625 163.925781 136.859375 C 159.316406 140.167969 156.078125 144.582031 153.765625 149.296875 C 149.121094 158.683594 148.726562 169.097656 148.753906 169.796875 L 148.753906 169.804688 C 148.753906 174.199219 145.183594 177.769531 140.800781 177.769531 C 136.40625 177.769531 132.835938 174.199219 132.835938 169.804688 C 132.835938 169.464844 132.855469 165.421875 133.914062 159.585938 C 134.980469 153.753906 137.070312 146.085938 141.5 138.527344 C 144.449219 133.507812 148.484375 128.53125 153.945312 124.441406 C 161.207031 118.972656 170.957031 115.285156 182.980469 114.890625 C 187.375 114.738281 191.058594 118.175781 191.210938 122.566406 C 191.371094 126.953125 187.941406 130.648438 183.535156 130.792969 Z M 258.042969 171 C 258.050781 155.011719 252.722656 140.222656 243.769531 128.398438 C 235.894531 117.984375 225.207031 109.835938 212.8125 105.046875 L 212.882812 104.707031 L 207.59375 103.15625 C 203.488281 101.960938 199.253906 101.136719 194.933594 100.695312 L 194.3125 100.617188 L 194.269531 100.617188 C 192.160156 100.421875 189.957031 100.265625 187.660156 100.265625 L 187.320312 100.265625 C 185.023438 100.265625 182.820312 100.421875 180.703125 100.617188 L 180.675781 100.617188 L 180.03125 100.695312 C 175.71875 101.136719 171.484375 101.960938 167.386719 103.15625 L 162.265625 104.652344 L 162.320312 104.992188 C 149.875 109.769531 139.132812 117.949219 131.214844 128.398438 C 122.246094 140.222656 116.921875 155.011719 116.9375 171 C 116.921875 182.457031 118.902344 191.890625 121.996094 199.691406 C 126.613281 211.394531 133.691406 219.300781 139.355469 225.285156 C 142.199219 228.277344 144.691406 230.824219 146.402344 232.996094 C 148.125 235.199219 148.957031 236.894531 149.210938 238.242188 C 150.449219 244.789062 150.574219 253.046875 150.574219 255.144531 L 150.566406 255.546875 L 150.566406 255.742188 C 150.574219 265.214844 158.238281 272.863281 167.691406 272.863281 L 207.289062 272.863281 C 216.75 272.863281 224.40625 265.203125 224.417969 255.742188 L 224.417969 255.65625 L 224.40625 255.546875 L 224.40625 255.160156 C 224.398438 253.089844 224.53125 244.804688 225.78125 238.25 C 225.941406 237.335938 226.355469 236.304688 227.144531 235.039062 C 228.496094 232.824219 231.058594 230.054688 234.226562 226.746094 C 238.96875 221.761719 245.023438 215.464844 249.808594 206.515625 C 254.625 197.59375 258.066406 186.046875 258.042969 171 " fill-opacity="1" fill-rule="nonzero"/><path fill="#f7e7ce" d="M 253.871094 223.21875 C 250.742188 227.832031 247.417969 231.792969 244.230469 235.378906 L 258.347656 249.503906 C 261.359375 252.515625 266.238281 252.515625 269.25 249.503906 C 272.253906 246.488281 272.253906 241.601562 269.25 238.597656 L 253.871094 223.21875 " fill-opacity="1" fill-rule="nonzero"/><g clip-path="url(#deff4d136b)"><path fill="#f7e7ce" d="M 295.410156 160.039062 L 268.015625 160.039062 C 268.453125 163.625 268.738281 167.277344 268.738281 171 C 268.738281 172.511719 268.703125 173.992188 268.648438 175.453125 L 295.410156 175.453125 C 299.667969 175.453125 303.121094 172.003906 303.121094 167.742188 C 303.121094 163.492188 299.667969 160.039062 295.410156 160.039062 " fill-opacity="1" fill-rule="nonzero"/></g></svg>