<svg xmlns="http://www.w3.org/2000/svg" xmlns:xlink="http://www.w3.org/1999/xlink" width="500" zoomAndPan="magnify" viewBox="0 0 375 374.999991" height="500" preserveAspectRatio="xMidYMid meet" version="1.0"><defs><clipPath id="a8963c42fe"><path d="M 4.691406 4.691406 L 370.308594 4.691406 L 370.308594 370.308594 L 4.691406 370.308594 Z M 4.691406 4.691406 " clip-rule="nonzero"/></clipPath><clipPath id="989ea98221"><path d="M 187.5 4.691406 C 86.539062 4.691406 4.691406 86.539062 4.691406 187.5 C 4.691406 288.460938 86.539062 370.308594 187.5 370.308594 C 288.460938 370.308594 370.308594 288.460938 370.308594 187.5 C 370.308594 86.539062 288.460938 4.691406 187.5 4.691406 Z M 187.5 4.691406 " clip-rule="nonzero"/></clipPath><clipPath id="745fe46fda"><path d="M 82 55.410156 L 292.75 55.410156 L 292.75 319.410156 L 82 319.410156 Z M 82 55.410156 " clip-rule="nonzero"/></clipPath><clipPath id="e29ee1875f"><path d="M 155.402344 200.808594 L 219.695312 200.808594 L 219.695312 261.996094 L 155.402344 261.996094 Z M 155.402344 200.808594 " clip-rule="nonzero"/></clipPath><clipPath id="254fc4a745"><path d="M 187.5 200.808594 L 195.078125 224.179688 L 219.597656 224.179688 L 199.761719 238.625 L 207.339844 261.996094 L 187.5 247.550781 L 167.660156 261.996094 L 175.238281 238.625 L 155.402344 224.179688 L 179.921875 224.179688 Z M 187.5 200.808594 " clip-rule="nonzero"/></clipPath></defs><g clip-path="url(#a8963c42fe)"><g clip-path="url(#989ea98221)"><path fill="#001f3f" d="M 4.691406 4.691406 L 370.308594 4.691406 L 370.308594 370.308594 L 4.691406 370.308594 Z M 4.691406 4.691406 " fill-opacity="1" fill-rule="nonzero"/></g></g><g clip-path="url(#745fe46fda)"><path fill="#f7e7ce" d="M 272.011719 269.800781 L 263.777344 234.714844 L 272.011719 199.78125 L 241.351562 180.863281 L 222.585938 150.203125 L 187.5 158.4375 L 152.414062 150.203125 L 133.652344 180.863281 L 102.988281 199.78125 L 111.226562 234.714844 L 102.988281 269.800781 L 133.5 288.714844 L 152.414062 319.378906 L 187.5 310.988281 L 222.433594 319.226562 L 241.503906 288.714844 Z M 187.347656 173.082031 C 203.53125 173.082031 219.050781 179.511719 230.496094 190.957031 C 241.9375 202.398438 248.367188 217.921875 248.367188 234.101562 C 248.367188 250.285156 241.9375 265.808594 230.496094 277.25 C 219.050781 288.695312 203.53125 295.121094 187.347656 295.121094 C 153.789062 295.121094 126.480469 267.816406 126.480469 234.253906 C 126.480469 200.390625 153.789062 173.082031 187.347656 173.082031 Z M 187.652344 188.339844 C 212.976562 188.339844 233.265625 208.78125 233.265625 234.101562 C 233.265625 259.273438 212.976562 279.867188 187.652344 279.867188 C 162.332031 279.867188 141.738281 259.273438 141.738281 234.101562 C 141.738281 208.78125 162.332031 188.339844 187.652344 188.339844 Z M 128.058594 169.035156 L 148.601562 137.386719 L 180.332031 144.558594 L 141.738281 55.621094 L 120.378906 89.183594 L 82.242188 89.183594 Z M 248.367188 169.035156 L 227.46875 136.167969 L 194.976562 143.945312 L 233.265625 55.621094 L 254.621094 89.183594 L 292.757812 89.183594 Z M 248.367188 169.035156 " fill-opacity="1" fill-rule="nonzero"/></g><g clip-path="url(#e29ee1875f)"><g clip-path="url(#254fc4a745)"><path fill="#001f3f" d="M 155.402344 200.808594 L 219.695312 200.808594 L 219.695312 261.996094 L 155.402344 261.996094 Z M 155.402344 200.808594 " fill-opacity="1" fill-rule="nonzero"/></g></g></svg>