<svg xmlns="http://www.w3.org/2000/svg" xmlns:xlink="http://www.w3.org/1999/xlink" width="500" zoomAndPan="magnify" viewBox="0 0 375 374.999991" height="500" preserveAspectRatio="xMidYMid meet" version="1.0"><defs><clipPath id="9d2ffed81b"><path d="M 4.691406 4.691406 L 370.308594 4.691406 L 370.308594 370.308594 L 4.691406 370.308594 Z M 4.691406 4.691406 " clip-rule="nonzero"/></clipPath><clipPath id="6f8201496b"><path d="M 187.5 4.691406 C 86.539062 4.691406 4.691406 86.539062 4.691406 187.5 C 4.691406 288.460938 86.539062 370.308594 187.5 370.308594 C 288.460938 370.308594 370.308594 288.460938 370.308594 187.5 C 370.308594 86.539062 288.460938 4.691406 187.5 4.691406 Z M 187.5 4.691406 " clip-rule="nonzero"/></clipPath><clipPath id="31b133a7f6"><path d="M 66.644531 45.871094 L 308 45.871094 L 308 329 L 66.644531 329 Z M 66.644531 45.871094 " clip-rule="nonzero"/></clipPath></defs><g clip-path="url(#9d2ffed81b)"><g clip-path="url(#6f8201496b)"><path fill="#001f3f" d="M 4.691406 4.691406 L 370.308594 4.691406 L 370.308594 370.308594 L 4.691406 370.308594 Z M 4.691406 4.691406 " fill-opacity="1" fill-rule="nonzero"/></g></g><g clip-path="url(#31b133a7f6)"><path fill="#f7e7ce" d="M 215.902344 285.59375 C 204.019531 292.257812 190.894531 297.03125 176.90625 299.472656 L 173.027344 300.148438 L 169.152344 299.472656 C 110.203125 289.195312 66.628906 237.460938 66.628906 177.589844 L 66.628906 91.554688 L 173.027344 45.949219 L 279.425781 91.554688 L 279.425781 172.90625 C 275.265625 172.746094 273.320312 172.898438 271.601562 172.285156 C 269.65625 171.589844 268.132812 169.957031 263.796875 166.777344 C 261.765625 165.289062 259.5625 164.199219 257.277344 163.503906 L 257.277344 111.808594 C 257.277344 108.058594 255.042969 104.671875 251.597656 103.199219 L 176.703125 71.128906 C 174.347656 70.121094 171.683594 70.121094 169.328125 71.128906 L 94.457031 103.199219 C 91.011719 104.675781 88.777344 108.0625 88.777344 111.808594 L 88.777344 176.414062 C 88.777344 224.800781 123.839844 266.773438 171.308594 275.566406 C 172.4375 275.777344 173.59375 275.777344 174.71875 275.566406 C 183.800781 273.886719 192.425781 270.992188 200.441406 267.070312 C 201.546875 267.792969 202.738281 268.425781 204.007812 268.957031 C 208.972656 271.042969 211.167969 271.511719 212.75 272.816406 C 213.835938 273.710938 214.578125 274.957031 215.902344 277.09375 Z M 193.695312 259.894531 C 187.1875 262.824219 180.257812 265.015625 173.015625 266.355469 C 129.953125 258.378906 98.144531 220.308594 98.144531 176.414062 L 98.144531 111.808594 L 173.015625 79.738281 L 247.910156 111.808594 L 247.910156 162.851562 C 244.621094 163.371094 241.414062 164.679688 238.554688 166.777344 C 234.214844 169.957031 232.691406 171.589844 230.746094 172.285156 C 228.796875 172.980469 226.558594 172.691406 221.136719 172.988281 C 211.566406 173.515625 203.859375 179.953125 201.675781 189.085938 L 201.671875 189.09375 C 200.453125 194.210938 200.375 196.398438 199.351562 198.136719 C 198.328125 199.882812 196.433594 201.050781 192.519531 204.660156 C 185.449219 211.136719 183.699219 221.035156 188.058594 229.519531 L 188.0625 229.53125 C 190.480469 234.214844 191.851562 235.933594 192.207031 237.90625 C 192.558594 239.878906 191.871094 241.957031 191.238281 247.160156 C 190.675781 251.734375 191.589844 256.144531 193.695312 259.894531 Z M 164.207031 178.199219 L 149.164062 163.15625 C 145.265625 159.257812 138.941406 159.257812 135.042969 163.15625 C 131.144531 167.070312 131.144531 173.378906 135.042969 177.273438 L 157.15625 199.410156 C 161.054688 203.304688 167.378906 203.304688 171.277344 199.410156 C 184.613281 186.070312 197.789062 172.59375 211.066406 159.195312 C 214.941406 155.28125 214.921875 148.972656 211.027344 145.097656 C 207.128906 141.21875 200.804688 141.242188 196.925781 145.136719 Z M 277.089844 287.257812 L 277.089844 325.890625 C 277.089844 327.0625 276.386719 328.125 275.304688 328.582031 C 274.222656 329.042969 272.972656 328.808594 272.128906 327.992188 L 251.179688 307.722656 L 230.230469 327.992188 C 229.382812 328.808594 228.132812 329.042969 227.050781 328.582031 C 225.96875 328.125 225.265625 327.0625 225.265625 325.890625 L 225.265625 287.269531 C 230.15625 290.0625 236.09375 290.828125 241.910156 289.097656 C 247.089844 287.566406 249.09375 286.542969 251.167969 286.542969 C 253.242188 286.542969 255.25 287.566406 260.449219 289.101562 C 266.25 290.828125 272.195312 290.058594 277.089844 287.257812 Z M 258.257812 174.332031 C 269.371094 182.480469 266.847656 181.582031 280.699219 182.339844 C 286.023438 182.636719 290.347656 186.179688 291.546875 191.265625 C 294.722656 204.515625 293.382812 202.234375 303.492188 211.554688 C 307.371094 215.117188 308.359375 220.566406 305.960938 225.238281 C 299.699219 237.378906 300.15625 234.785156 301.816406 248.292969 C 302.433594 253.484375 299.628906 258.273438 294.722656 260.316406 C 281.96875 265.679688 284.015625 263.984375 276.429688 275.382812 C 273.519531 279.742188 268.207031 281.644531 263.109375 280.121094 C 249.824219 276.195312 252.507812 276.195312 239.238281 280.121094 C 234.125 281.644531 228.832031 279.742188 225.921875 275.382812 C 218.316406 263.984375 220.382812 265.679688 207.625 260.316406 C 202.722656 258.273438 199.898438 253.484375 200.535156 248.292969 C 202.175781 234.785156 202.652344 237.378906 196.386719 225.238281 C 193.988281 220.566406 194.960938 215.117188 198.859375 211.554688 C 208.96875 202.234375 207.625 204.515625 210.785156 191.265625 C 212 186.179688 216.324219 182.636719 221.652344 182.339844 C 235.5 181.582031 232.976562 182.480469 244.089844 174.332031 C 248.359375 171.203125 253.988281 171.203125 258.257812 174.332031 Z M 251.164062 258.761719 C 269.40625 258.761719 284.261719 244.179688 284.261719 226.3125 C 284.261719 208.441406 269.40625 193.863281 251.164062 193.863281 C 232.941406 193.863281 218.070312 208.441406 218.070312 226.3125 C 218.070312 244.179688 232.941406 258.761719 251.164062 258.761719 Z M 251.164062 258.761719 " fill-opacity="1" fill-rule="evenodd"/></g></svg>